<svg xmlns="http://www.w3.org/2000/svg" viewBox="0 0 192.4 74.44"><defs><style>.cls-1{fill:#fc7e7e;}.cls-2{fill:#fcc344;}.cls-3{font-size:30px;fill:#fff;font-family:Rockwell-Regular, Rockwell;}.cls-4{letter-spacing:-0.08em;}.cls-5{letter-spacing:0em;}.cls-6,.cls-8{letter-spacing:0em;}.cls-6{fill:#000;}.cls-7{letter-spacing:-0.06em;}</style></defs><title>Food Wizard_1</title><g id="Layer_2" data-name="Layer 2"><g id="Layer_1-2" data-name="Layer 1"><g id="Food_Wizard_Logo" data-name="Food Wizard Logo"><path class="cls-1" d="M11.76.83a2.84,2.84,0,0,0,0,4L23.29,16.39h0l1.33,1.33a1,1,0,0,1,0,1.43,1,1,0,0,1-1.42,0l-1.34-1.33h0L10.32,6.29a2.85,2.85,0,0,0-4,4L17.83,21.85h0l1.33,1.33a1,1,0,0,1,0,1.43,1,1,0,0,1-1.42,0L16.4,23.28h0L4.86,11.76a2.85,2.85,0,1,0-4,4L12.37,27.31l4.93,4.94a6.06,6.06,0,0,0,8.3.25L62.91,69.81l6.71-6.71L32.32,25.8a6,6,0,0,0,0-8.44l-5-5L15.78.83A2.84,2.84,0,0,0,11.76.83Z"/><path class="cls-2" d="M64.71,5.1h0a12.66,12.66,0,0,0-17.9,0L42,9.91a12.66,12.66,0,0,0-2.76,13.76L1.2,61.72l6.69,6.69,38-38a12.66,12.66,0,0,0,14-2.63l4.8-4.8A12.66,12.66,0,0,0,64.71,5.1Z"/></g><text class="cls-3" transform="translate(84.69 29.65)"><tspan class="cls-4">F</tspan><tspan class="cls-2" x="15.92" y="0">o</tspan><tspan class="cls-1" x="34.38" y="0">o</tspan><tspan class="cls-5" x="52.84" y="0">d</tspan><tspan class="cls-6" x="73.18" y="0"> </tspan><tspan x="0" y="36">Wiza</tspan><tspan class="cls-7" x="75.57" y="36">r</tspan><tspan class="cls-8" x="87.36" y="36">d</tspan></text></g></g></svg>